<svg width="318" height="38" viewBox="0 0 318 38" fill="none" xmlns="http://www.w3.org/2000/svg">
<rect width="318" height="38" rx="10" fill="#626262"/>
<path d="M30.5124 10.1161H34.2424V20.1822L39.4032 10.1161H43.1333V28H39.4032V18.3172L34.2424 28H30.5124V10.1161ZM45.7935 18.2661L46.1001 15.3025C46.594 15.1662 47.0624 15.064 47.5052 14.9959C47.9651 14.9277 48.425 14.9022 48.8848 14.9192C49.7365 14.9363 50.4177 15.0981 50.9287 15.4046C51.4567 15.6942 51.857 16.0689 52.1295 16.5288C52.402 16.9716 52.5723 17.4485 52.6405 17.9595C52.6916 18.3001 52.6745 18.6578 52.5894 19.0325C52.5212 19.4072 52.3935 19.7649 52.2061 20.1055C52.0188 20.4292 51.7803 20.7017 51.4908 20.9231C52.0358 21.2637 52.4446 21.7236 52.7171 22.3027C53.0066 22.8818 53.1514 23.512 53.1514 24.1933C53.1514 24.8746 52.9811 25.5303 52.6405 26.1605C52.2998 26.7737 51.7888 27.2846 51.1076 27.6934C50.4263 28.0852 49.5746 28.281 48.5527 28.281C47.7692 28.281 47.0283 28.2044 46.33 28.0511C45.6487 27.8978 44.9674 27.6849 44.2861 27.4124L45.3592 24.04C45.5636 24.1592 45.7935 24.2699 46.049 24.3721C46.3215 24.4573 46.611 24.5339 46.9176 24.6021C47.2412 24.6532 47.5648 24.6787 47.8885 24.6787C48.1439 24.6787 48.3739 24.6446 48.5783 24.5765C48.7826 24.5084 48.9445 24.4062 49.0637 24.2699C49.1829 24.1337 49.2425 23.9719 49.2425 23.7845C49.2425 23.6483 49.2085 23.529 49.1403 23.4268C49.0892 23.3246 49.0126 23.2395 48.9104 23.1714C48.8082 23.1032 48.6805 23.0521 48.5272 23.0181C48.3909 22.984 48.2461 22.967 48.0928 22.967H46.8665L45.8446 19.799H47.4797C47.8203 19.799 48.0928 19.7564 48.2972 19.6712C48.5016 19.5861 48.6464 19.4754 48.7316 19.3391C48.8337 19.1858 48.8848 19.0325 48.8848 18.8792C48.8848 18.743 48.8593 18.6323 48.8082 18.5471C48.7741 18.4449 48.7145 18.3597 48.6294 18.2916C48.5442 18.2235 48.442 18.1724 48.3228 18.1383C48.2206 18.1043 48.1099 18.0787 47.9906 18.0617C47.7352 18.0446 47.4797 18.0532 47.2242 18.0872C46.9857 18.1043 46.7473 18.1298 46.5088 18.1639C46.2874 18.1809 46.049 18.215 45.7935 18.2661ZM62.9975 21.0253C63.4574 21.3659 63.8066 21.8173 64.045 22.3794C64.3005 22.9244 64.4282 23.5375 64.4282 24.2188C64.4282 24.8831 64.2579 25.5303 63.9173 26.1605C63.5766 26.7737 63.0571 27.2846 62.3588 27.6934C61.6775 28.1022 60.8089 28.3066 59.7529 28.3066C59.4122 28.3066 59.012 28.2981 58.5521 28.281C58.0922 28.264 57.6153 28.2385 57.1214 28.2044C56.6445 28.1703 56.1931 28.1363 55.7673 28.1022C55.3415 28.0681 54.9924 28.0426 54.7199 28.0255C54.4644 28.0085 54.3366 28 54.3366 28V15.2003C54.3366 15.2003 54.4644 15.1917 54.7199 15.1747C54.9924 15.1406 55.3671 15.1066 55.844 15.0725C56.3209 15.0214 56.8744 14.9874 57.5046 14.9703C58.1519 14.9363 58.8502 14.9192 59.5996 14.9192C60.1787 14.9192 60.7322 14.9959 61.2602 15.1492C61.7882 15.2854 62.2566 15.4983 62.6654 15.7879C63.0742 16.0604 63.3978 16.4266 63.6362 16.8865C63.8917 17.3463 64.0195 17.8914 64.0195 18.5215C64.0195 18.9644 63.9343 19.4157 63.764 19.8756C63.5937 20.3355 63.3382 20.7187 62.9975 21.0253ZM59.293 18.0872C59.2079 18.0872 59.1142 18.0872 59.012 18.0872C58.9098 18.0872 58.7991 18.0957 58.6799 18.1128C58.5777 18.1128 58.4755 18.1213 58.3733 18.1383C58.2711 18.1383 58.1689 18.1383 58.0667 18.1383V20.0034H58.8331C59.2079 20.0034 59.4889 19.9523 59.6762 19.8501C59.8806 19.7479 60.0254 19.6201 60.1106 19.4668C60.2128 19.3135 60.2639 19.1603 60.2639 19.007C60.2639 18.8537 60.2298 18.7259 60.1617 18.6237C60.1106 18.5045 60.0339 18.4108 59.9317 18.3427C59.8466 18.2575 59.7444 18.1979 59.6251 18.1639C59.5229 18.1128 59.4122 18.0872 59.293 18.0872ZM59.2164 24.7809C59.4378 24.7809 59.6422 24.7554 59.8295 24.7043C60.0339 24.6361 60.1872 24.5339 60.2894 24.3977C60.4086 24.2614 60.4682 24.0911 60.4682 23.8867C60.4682 23.7334 60.4427 23.6057 60.3916 23.5035C60.3405 23.4013 60.2639 23.3161 60.1617 23.248C60.0595 23.1628 59.9402 23.1032 59.804 23.0692C59.6677 23.0181 59.5144 22.9925 59.3441 22.9925H58.0667V24.7554C58.1689 24.7554 58.2711 24.7639 58.3733 24.7809C58.4925 24.7809 58.6032 24.7809 58.7054 24.7809C58.8076 24.7809 58.9013 24.7809 58.9864 24.7809C59.0716 24.7809 59.1482 24.7809 59.2164 24.7809ZM72.9093 15.2258H78.0956V27.9745H74.3656V18.4705H73.8035C73.548 18.4705 73.3181 18.513 73.1137 18.5982C72.9263 18.6663 72.7645 18.7855 72.6283 18.9559C72.492 19.1262 72.3728 19.3646 72.2706 19.6712L70.9421 24.1677C70.6525 25.1045 70.2863 25.8795 69.8435 26.4926C69.4007 27.0888 68.8641 27.5572 68.2339 27.8978C67.6208 28.2385 66.9054 28.4769 66.0879 28.6132L64.6572 26.2627C65.1 26.0754 65.4832 25.8965 65.8069 25.7262C66.1305 25.5559 66.4115 25.3174 66.6499 25.0108C66.8884 24.6872 67.0928 24.2359 67.2631 23.6568L68.6172 19.0581C68.7364 18.6493 68.8812 18.2235 69.0515 17.7806C69.2389 17.3378 69.4858 16.9205 69.7924 16.5288C70.099 16.137 70.4992 15.8219 70.9932 15.5835C71.5041 15.345 72.1429 15.2258 72.9093 15.2258ZM83.2406 23.9634C83.2406 24.1166 83.2662 24.2614 83.3173 24.3977C83.3684 24.5169 83.4365 24.6191 83.5217 24.7043C83.6068 24.7894 83.7175 24.8575 83.8538 24.9086C84.0071 24.9597 84.1774 24.9853 84.3648 24.9853C84.7735 24.9853 85.259 24.9001 85.821 24.7298C86.3831 24.5425 86.8855 24.3551 87.3284 24.1677L88.4014 27.1058C87.7882 27.4805 87.0814 27.7786 86.2809 28C85.4974 28.2214 84.7054 28.3321 83.9049 28.3321C83.2917 28.3321 82.7126 28.2555 82.1676 28.1022C81.6396 27.9489 81.1712 27.719 80.7624 27.4124C80.3707 27.1058 80.0641 26.7141 79.8427 26.2372C79.6213 25.7603 79.5106 25.1982 79.5106 24.551V19.3135C79.5106 18.3427 79.7235 17.5337 80.1493 16.8865C80.5921 16.2392 81.1797 15.7538 81.9121 15.4302C82.6615 15.1066 83.4961 14.9448 84.4159 14.9448C85.3356 14.9448 86.1446 15.1066 86.843 15.4302C87.5413 15.7368 88.0863 16.2137 88.4781 16.8609C88.8698 17.4911 89.0657 18.2831 89.0657 19.2369V23.1969L83.2406 23.5035V23.9634ZM85.3356 19.7479C85.3356 19.4754 85.3101 19.2284 85.259 19.007C85.2079 18.7855 85.1057 18.6067 84.9524 18.4705C84.8161 18.3172 84.6117 18.249 84.3392 18.2661C84.0326 18.2661 83.8027 18.3342 83.6494 18.4705C83.4961 18.5897 83.3854 18.7515 83.3173 18.9559C83.2662 19.1603 83.2406 19.4157 83.2406 19.7223V20.4888L85.3356 20.3355V19.7479ZM95.8559 28V24.6276C95.7538 24.7128 95.5834 24.8065 95.345 24.9086C95.1065 25.0108 94.834 25.096 94.5274 25.1641C94.2208 25.2323 93.9058 25.2663 93.5821 25.2663C93.1393 25.2663 92.6965 25.1982 92.2536 25.0619C91.8278 24.9257 91.4276 24.7043 91.0528 24.3977C90.6952 24.0741 90.4056 23.6397 90.1842 23.0947C89.9628 22.5497 89.8521 21.8684 89.8521 21.0508V15.2258H93.6077V20.8209C93.6077 21.0083 93.6332 21.1701 93.6843 21.3063C93.7354 21.4426 93.8036 21.5533 93.8887 21.6385C93.9909 21.7236 94.1016 21.7917 94.2208 21.8428C94.3571 21.8769 94.5019 21.8939 94.6552 21.8939C94.8255 21.8939 94.9788 21.8599 95.115 21.7917C95.2683 21.7236 95.3961 21.6299 95.4983 21.5107C95.6175 21.3915 95.7027 21.2552 95.7538 21.1019C95.8219 20.9316 95.8559 20.7528 95.8559 20.5654V18.4705C95.8559 18.0617 95.9156 17.6529 96.0348 17.2441C96.154 16.8183 96.3584 16.4351 96.6479 16.0945C96.9545 15.7368 97.3463 15.4472 97.8232 15.2258C98.3171 15.0044 98.9303 14.8937 99.6627 14.8937L100.812 17.5252C100.318 17.6274 99.9863 17.8488 99.8159 18.1894C99.6627 18.513 99.586 18.8963 99.586 19.3391V28H95.8559ZM106.961 19.5179C107.727 19.5179 108.46 19.6627 109.158 19.9523C109.873 20.2248 110.452 20.6761 110.895 21.3063C111.355 21.9195 111.585 22.737 111.585 23.759C111.585 24.6276 111.406 25.4026 111.048 26.0839C110.691 26.7652 110.146 27.2932 109.413 27.6679C108.698 28.0426 107.795 28.2299 106.705 28.2299C106.382 28.2299 105.998 28.2214 105.556 28.2044C105.13 28.1874 104.687 28.1618 104.227 28.1277C103.767 28.0937 103.333 28.0596 102.924 28.0255C102.532 28.0085 102.217 27.9915 101.979 27.9745C101.74 27.9574 101.621 27.9489 101.621 27.9489V15.2258H105.351V19.5179H106.961ZM106.629 24.7554C106.85 24.7554 107.046 24.7298 107.216 24.6787C107.387 24.6106 107.523 24.5084 107.625 24.3721C107.744 24.2188 107.804 24.023 107.804 23.7845C107.804 23.6142 107.778 23.4779 107.727 23.3757C107.676 23.2565 107.608 23.1628 107.523 23.0947C107.438 23.0095 107.327 22.9499 107.191 22.9159C107.071 22.8818 106.935 22.8648 106.782 22.8648H105.351V24.7043C105.47 24.7043 105.59 24.7128 105.709 24.7298C105.828 24.7298 105.939 24.7383 106.041 24.7554C106.16 24.7554 106.271 24.7554 106.373 24.7554C106.475 24.7554 106.56 24.7554 106.629 24.7554ZM127.944 21.0253C128.404 21.3659 128.753 21.8173 128.992 22.3794C129.247 22.9244 129.375 23.5375 129.375 24.2188C129.375 24.8831 129.205 25.5303 128.864 26.1605C128.523 26.7737 128.004 27.2846 127.306 27.6934C126.624 28.1022 125.756 28.3066 124.7 28.3066C124.359 28.3066 123.959 28.2981 123.499 28.281C123.039 28.264 122.562 28.2385 122.068 28.2044C121.591 28.1703 121.14 28.1363 120.714 28.1022C120.288 28.0681 119.939 28.0426 119.667 28.0255C119.411 28.0085 119.283 28 119.283 28V15.2003C119.283 15.2003 119.411 15.1917 119.667 15.1747C119.939 15.1406 120.314 15.1066 120.791 15.0725C121.268 15.0214 121.821 14.9874 122.451 14.9703C123.099 14.9363 123.797 14.9192 124.546 14.9192C125.125 14.9192 125.679 14.9959 126.207 15.1492C126.735 15.2854 127.203 15.4983 127.612 15.7879C128.021 16.0604 128.345 16.4266 128.583 16.8865C128.839 17.3463 128.966 17.8914 128.966 18.5215C128.966 18.9644 128.881 19.4157 128.711 19.8756C128.54 20.3355 128.285 20.7187 127.944 21.0253ZM124.24 18.0872C124.155 18.0872 124.061 18.0872 123.959 18.0872C123.857 18.0872 123.746 18.0957 123.627 18.1128C123.524 18.1128 123.422 18.1213 123.32 18.1383C123.218 18.1383 123.116 18.1383 123.013 18.1383V20.0034H123.78C124.155 20.0034 124.436 19.9523 124.623 19.8501C124.827 19.7479 124.972 19.6201 125.057 19.4668C125.16 19.3135 125.211 19.1603 125.211 19.007C125.211 18.8537 125.177 18.7259 125.108 18.6237C125.057 18.5045 124.981 18.4108 124.879 18.3427C124.793 18.2575 124.691 18.1979 124.572 18.1639C124.47 18.1128 124.359 18.0872 124.24 18.0872ZM124.163 24.7809C124.385 24.7809 124.589 24.7554 124.776 24.7043C124.981 24.6361 125.134 24.5339 125.236 24.3977C125.355 24.2614 125.415 24.0911 125.415 23.8867C125.415 23.7334 125.389 23.6057 125.338 23.5035C125.287 23.4013 125.211 23.3161 125.108 23.248C125.006 23.1628 124.887 23.1032 124.751 23.0692C124.615 23.0181 124.461 22.9925 124.291 22.9925H123.013V24.7554C123.116 24.7554 123.218 24.7639 123.32 24.7809C123.439 24.7809 123.55 24.7809 123.652 24.7809C123.754 24.7809 123.848 24.7809 123.933 24.7809C124.018 24.7809 124.095 24.7809 124.163 24.7809ZM137.728 18.9048C137.507 18.7855 137.26 18.6919 136.987 18.6237C136.732 18.5386 136.468 18.4875 136.195 18.4705C135.838 18.4364 135.506 18.479 135.199 18.5982C134.91 18.7004 134.68 18.8707 134.509 19.1092C134.339 19.3476 134.254 19.6627 134.254 20.0545V23.0181C134.254 23.3076 134.296 23.5631 134.382 23.7845C134.484 24.0059 134.62 24.1848 134.79 24.321C134.978 24.4573 135.191 24.5595 135.429 24.6276C135.667 24.6957 135.931 24.7298 136.221 24.7298C136.425 24.7298 136.63 24.7213 136.834 24.7043C137.039 24.6872 137.217 24.6702 137.371 24.6532C137.541 24.6191 137.677 24.5935 137.779 24.5765C137.882 24.5425 137.933 24.5254 137.933 24.5254L138.674 27.8723C138.146 28.0085 137.601 28.1192 137.039 28.2044C136.476 28.2895 135.906 28.3236 135.327 28.3066C134.356 28.2725 133.496 28.0937 132.746 27.7701C132.014 27.4294 131.443 26.9185 131.035 26.2372C130.626 25.5388 130.422 24.6446 130.422 23.5546V19.8245C130.422 18.8537 130.609 18.0021 130.984 17.2697C131.358 16.5203 131.903 15.9326 132.619 15.5068C133.351 15.081 134.245 14.8852 135.301 14.9192C135.863 14.9363 136.425 15.0214 136.987 15.1747C137.55 15.328 138.095 15.5239 138.623 15.7623L137.728 18.9048ZM143.522 23.9634C143.522 24.1166 143.547 24.2614 143.598 24.3977C143.65 24.5169 143.718 24.6191 143.803 24.7043C143.888 24.7894 143.999 24.8575 144.135 24.9086C144.288 24.9597 144.459 24.9853 144.646 24.9853C145.055 24.9853 145.54 24.9001 146.102 24.7298C146.664 24.5425 147.167 24.3551 147.61 24.1677L148.683 27.1058C148.069 27.4805 147.363 27.7786 146.562 28C145.779 28.2214 144.987 28.3321 144.186 28.3321C143.573 28.3321 142.994 28.2555 142.449 28.1022C141.921 27.9489 141.452 27.719 141.044 27.4124C140.652 27.1058 140.345 26.7141 140.124 26.2372C139.902 25.7603 139.792 25.1982 139.792 24.551V19.3135C139.792 18.3427 140.005 17.5337 140.43 16.8865C140.873 16.2392 141.461 15.7538 142.193 15.4302C142.943 15.1066 143.777 14.9448 144.697 14.9448C145.617 14.9448 146.426 15.1066 147.124 15.4302C147.822 15.7368 148.368 16.2137 148.759 16.8609C149.151 17.4911 149.347 18.2831 149.347 19.2369V23.1969L143.522 23.5035V23.9634ZM145.617 19.7479C145.617 19.4754 145.591 19.2284 145.54 19.007C145.489 18.7855 145.387 18.6067 145.234 18.4705C145.097 18.3172 144.893 18.249 144.62 18.2661C144.314 18.2661 144.084 18.3342 143.931 18.4705C143.777 18.5897 143.667 18.7515 143.598 18.9559C143.547 19.1603 143.522 19.4157 143.522 19.7223V20.4888L145.617 20.3355V19.7479ZM151.743 24.9086C152.237 24.9086 152.654 25.079 152.995 25.4196C153.352 25.7603 153.531 26.1775 153.531 26.6715C153.531 27.1654 153.352 27.5912 152.995 27.9489C152.654 28.2895 152.237 28.4599 151.743 28.4599C151.249 28.4599 150.832 28.2895 150.491 27.9489C150.15 27.5912 149.98 27.1654 149.98 26.6715C149.98 26.1775 150.15 25.7603 150.491 25.4196C150.832 25.079 151.249 24.9086 151.743 24.9086ZM156.097 24.9086C156.591 24.9086 157.008 25.079 157.349 25.4196C157.707 25.7603 157.885 26.1775 157.885 26.6715C157.885 27.1654 157.707 27.5912 157.349 27.9489C157.008 28.2895 156.591 28.4599 156.097 28.4599C155.603 28.4599 155.186 28.2895 154.845 27.9489C154.505 27.5912 154.334 27.1654 154.334 26.6715C154.334 26.1775 154.505 25.7603 154.845 25.4196C155.186 25.079 155.603 24.9086 156.097 24.9086Z" fill="white"/>
</svg>
